{"title":"The.Avengers.2012.TS.SUPERDUPER.HQ.XviD-INSPiRAL","uid":7277638,"size":1562371112,"categoryP":"video","categoryS":"movies","magnet":"?xt=urn:btih:156faaac7b4d3b149632623b73eb7770da9b3912&amp;dn=The.Avengers.2012.TS.SUPERDUPER.HQ.XviD-INSPiRAL&amp;tr=udp%3A%2F%2Ftracker.openbittorrent.com%3A80&amp;tr=udp%3A%2F%2Fopen.demonii.com%3A1337&amp;tr=udp%3A%2F%2Ftracker.coppersurfer.tk%3A6969&amp;tr=udp%3A%2F%2Fexodus.desync.com%3A6969","seeders":1,"leechers":0,"uploader":"maximersk","files":4,"time":1337340582,"description":"The.Avengers.2012.TS.SUPERDUPER.HQ.XviD-INSPiRAL\n\n\n\n\n\nNick Fury of S.H.I.E.L.D. brings together a team of super humans to form The Avengers to help save the Earth from Loki and his army. \n\nTITLE:\n\nThe Avengers 2012 TS SUPERDUPER HQ XViD - INSPiRAL\n\nIMDB:\n &lt;a href=&quot;\nhttp://www.imdb.com/title/tt0848228/&quot; rel=&quot;nofollow&quot; target=&quot;_NEW&quot;&gt;\nhttp://www.imdb.com/title/tt0848228/&lt;/a&gt;\n\n\nSOURCES:\n\n[b]VIDEO - CHINESE RIP THANKS\nAUDIO - ADTRG THANKS\nSUBS - Eng Custom when needed.\n[/b]\nSTATS:\n\nVideo\nID : 0\nFormat : MPEG-4 Visual\nFormat profile : Advanced Simple@L5\nFormat settings, BVOP : 2\nFormat settings, QPel : No\nFormat settings, GMC : No warppoints\nFormat settings, Matrix : Default (MPEG)\nMuxing mode : Packed bitstream\nCodec ID : XVID\nCodec ID/Hint : XviD\nDuration : 2h 16mn\nBit rate : 1 316 Kbps\nWidth : 720 pixels\nHeight : 320 pixels\nDisplay aspect ratio : 2.25:1\nFrame rate : 29.970 fps\nColor space : YUV\nChroma subsampling : 4:2:0\nBit depth : 8 bits\nScan type : Progressive\nCompression mode : Lossy\nBits/(Pixel*Frame) : 0.191\nStream size : 1.25 GiB (87%)\nWriting library : XviD 64\n\nAudio\nID : 1\nFormat : MPEG Audio\nFormat version : Version 1\nFormat profile : Layer 3\nMode : Joint stereo\nCodec ID : 55\nCodec ID/Hint : MP3\nDuration : 2h 16mn\nBit rate mode : Constant\nBit rate : 192 Kbps\nChannel(s) : 2 channels\nSampling rate : 48.0 KHz\nCompression mode : Lossy\nStream size : 187 MiB (13%)\nAlignment : Split accross interleaves\nInterleave, duration : 33 ms (1.00 video frame)\nInterleave, preload duration : 500 ms","torrent":{"xt":"urn:btih:156faaac7b4d3b149632623b73eb7770da9b3912","amp;dn":"The.Avengers.2012.TS.SUPERDUPER.HQ.XviD-INSPiRAL","amp;tr":["udp%3A%2F%2Ftracker.openbittorrent.com%3A80","udp%3A%2F%2Fopen.demonii.com%3A1337","udp%3A%2F%2Ftracker.coppersurfer.tk%3A6969","udp%3A%2F%2Fexodus.desync.com%3A6969"],"infoHash":"156faaac7b4d3b149632623b73eb7770da9b3912","infoHashBuffer":{"type":"Buffer","data":[21,111,170,172,123,77,59,20,150,50,98,59,115,235,119,112,218,155,57,18]},"announce":[],"urlList":[]}}